# xmcd
#
# Track frame offsets:
#	150
#	20602
#	32927
#	45454
#	66272
#	78799
#	101059
#	113599
#	124909
#	139873
#	158714
#	178178
#	205114
#	220811
#	235532
#	270562
#	295330
#	314420
#	332955
#
# Disc length: 4650 seconds
#
# Revision: 1
# Processed by: cddbd v1.4PL0 Copyright (c) Steve Scherf et al.
# Submitted via: audiograbber 1.82.01
#
DISCID=14122813
DTITLE=RXR Probe CD - Probe CD
DYEAR=2003
DGENRE=ProbeCD
TTITLE0=Hymn
TTITLE1=Knockin´on Heavens Door
TTITLE2=Lodi
TTITLE3=Mimmi McGee
TTITLE4=Teach Your Children
TTITLE5=Boxer
TTITLE6=Unbekannt
TTITLE7=Whole Stop The Rain
TTITLE8=Straight From The Heart
TTITLE9=Turn The Page
TTITLE10=Speed Of The Sound Of Loneliness
TTITLE11=Speed of The Sound
TTITLE12=The Speed Of The Sound Of Loneliness
TTITLE13=Will You Still Love Me Tomorrow
TTITLE14=Will You Still Love Me
TTITLE15=When Will You Love me Tomorrow
TTITLE16=Will You Still Love Me (Japanese)
TTITLE17=Will You Still Love Me
TTITLE18=Somekind Of Wonderfull
EXTD=
EXTT0=
EXTT1=
EXTT2=
EXTT3=
EXTT4=
EXTT5=
EXTT6=
EXTT7=
EXTT8=
EXTT9=
EXTT10=
EXTT11=
EXTT12=
EXTT13=
EXTT14=
EXTT15=
EXTT16=
EXTT17=
EXTT18=
PLAYORDER=
